<svg xmlns="http://www.w3.org/2000/svg" fill="#ffffff"  viewBox="0 0 24 24" width="18px" height="19px"><path d="M 4 5 C 2.35 5 1 6.35 1 8 L 1 15 C 1 16.3 1.84 17.410312 3 17.820312 L 3 8 C 3 7.45 3.45 7 4 7 L 20 7 C 20.55 7 21 7.45 21 8 L 21 17.820312 C 22.16 17.410312 23 16.3 23 15 L 23 8 C 23 6.35 21.65 5 20 5 L 4 5 z M 18 9 C 17.448 9 17 9.448 17 10 L 17 19 C 17 19.552 17.448 20 18 20 C 18.552 20 19 19.552 19 19 L 19 10 C 19 9.448 18.552 9 18 9 z M 10 11 C 9.448 11 9 11.448 9 12 L 9 19 C 9 19.552 9.448 20 10 20 C 10.552 20 11 19.552 11 19 L 11 12 C 11 11.448 10.552 11 10 11 z M 14 13 C 13.448 13 13 13.448 13 14 L 13 19 C 13 19.552 13.448 20 14 20 C 14.552 20 15 19.552 15 19 L 15 14 C 15 13.448 14.552 13 14 13 z M 6 15 C 5.448 15 5 15.448 5 16 L 5 19 C 5 19.552 5.448 20 6 20 C 6.552 20 7 19.552 7 19 L 7 16 C 7 15.448 6.552 15 6 15 z"/></svg>